<?xml version="1.0" standalone="no"?>
<!DOCTYPE svg PUBLIC "-//W3C//DTD SVG 20010904//EN" "http://www.w3.org/TR/2001/REC-SVG-20010904/DTD/svg10.dtd">
<svg version="1.0" xmlns="http://www.w3.org/2000/svg" width="168.000000pt" height="168.000000pt"
    viewBox="0 0 168.000000 168.000000" preserveAspectRatio="xMidYMid meet">

    <g transform="translate(0.000000,168.000000) scale(0.100000,-0.100000)" fill="#000000" stroke="none">
        <path fill="#aaa" d="M635 1636 c-36 -16 -59 -42 -111 -123 l-39 -63 -157 0 c-129 0 -159
-3 -172 -16 -36 -35 -7 -84 49 -84 l34 0 3 -562 c3 -558 3 -563 25 -604 31
-58 84 -101 147 -119 46 -14 113 -15 448 -13 l393 3 54 30 c63 35 104 92 120
166 7 32 11 242 11 574 l0 525 35 0 c26 0 39 6 51 25 15 23 15 27 0 50 -16 25
-17 25 -176 25 l-159 0 -53 77 c-83 120 -77 118 -291 120 -137 2 -189 -1 -212
-11z m398 -123 c13 -21 27 -44 31 -50 6 -10 -42 -13 -223 -13 -127 0 -231 4
-231 8 0 5 14 28 30 50 l30 42 170 0 170 0 23 -37z m307 -700 c0 -521 -1 -538
-21 -579 -15 -31 -32 -48 -63 -63 -40 -20 -59 -21 -422 -21 -423 0 -426 0
-471 69 l-23 34 0 548 0 549 500 0 500 0 0 -537z" />
        <path fill="#cc9d9d" d="M506 1134 c-14 -13 -16 -62 -16 -384 0 -322 2 -371 16 -384 22 -22
50 -20 68 6 24 34 24 722 0 756 -18 26 -46 28 -68 6z" />
        <path fill="#cc9d9d" d="M806 1134 c-14 -13 -16 -62 -16 -384 0 -322 2 -371 16 -384 22 -22
50 -20 68 6 14 19 16 72 16 378 0 306 -2 359 -16 378 -18 26 -46 28 -68 6z" />
        <path fill="#cc9d9d" d="M1106 1134 c-14 -13 -16 -62 -16 -384 0 -322 2 -371 16 -384 22 -22
50 -20 68 6 14 19 16 72 16 378 0 306 -2 359 -16 378 -18 26 -46 28 -68 6z" />
    </g>
</svg>