<?xml version="1.0" standalone="no"?>
<!DOCTYPE svg PUBLIC "-//W3C//DTD SVG 20010904//EN" "http://www.w3.org/TR/2001/REC-SVG-20010904/DTD/svg10.dtd">
<svg version="1.0" xmlns="http://www.w3.org/2000/svg" width="168.000000pt" height="168.000000pt"
    viewBox="0 0 168.000000 168.000000" preserveAspectRatio="xMidYMid meet">
    <g transform="translate(0.000000,168.000000) scale(0.100000,-0.100000)" fill="#000000" stroke="none">
        <path fill="#a5cdae" d="M1329 1626 c-20 -7 -49 -22 -65 -34 -42 -30 -730 -723 -742 -747 -12
-24 -82 -317 -82 -344 0 -10 9 -26 20 -36 19 -17 24 -17 137 9 261 61 188 9
611 430 206 204 382 388 393 408 23 46 25 127 3 173 -23 50 -114 131 -160 144
-49 14 -70 13 -115 -3z m117 -107 c49 -30 77 -74 77 -121 0 -35 -7 -47 -57
-96 l-56 -57 -85 85 c-47 46 -85 89 -85 95 0 13 89 101 110 108 31 11 64 6 96
-14z m-193 -257 l87 -87 -279 -279 -278 -278 -99 -24 c-55 -13 -106 -24 -115
-24 -18 0 -18 -4 32 195 9 34 54 83 282 313 149 149 274 272 277 272 3 0 45
-39 93 -88z" />
        <path fill="#aaa" d="M202 1431 c-61 -21 -104 -58 -135 -116 -22 -40 -22 -46 -22 -565 0
-521 0 -525 22 -566 12 -22 38 -55 57 -72 68 -60 89 -62 615 -62 281 0 491 4
511 10 71 19 126 64 156 127 29 58 29 58 32 286 3 196 1 231 -12 252 -19 29
-47 32 -70 9 -14 -13 -16 -49 -16 -237 0 -202 -2 -224 -21 -263 -15 -31 -32
-48 -63 -63 -41 -20 -58 -21 -522 -21 -534 0 -524 -1 -571 69 l-23 34 0 497 0
497 23 34 c43 64 65 69 319 69 l228 0 16 25 c15 23 15 27 0 50 l-16 25 -228 0
c-194 -1 -235 -3 -280 -19z" />
    </g>
</svg>