<?xml version="1.0" standalone="no"?>
<!DOCTYPE svg PUBLIC "-//W3C//DTD SVG 20010904//EN" "http://www.w3.org/TR/2001/REC-SVG-20010904/DTD/svg10.dtd">
<svg version="1.0" xmlns="http://www.w3.org/2000/svg" width="344.000000pt" height="336.000000pt"
    viewBox="0 0 344.000000 336.000000" preserveAspectRatio="xMidYMid meet">

    <g transform="translate(0.000000,336.000000) scale(0.100000,-0.100000)" stroke="none">
        <path fill="#aaa" d="M1620 3273 c-148 -8 -342 -48 -478 -100 -442 -165 -803 -542 -950
-993 -145 -443 -94 -929 140 -1320 356 -596 1025 -889 1709 -750 198 41 421
136 584 251 117 83 302 269 387 389 139 195 244 458 279 703 15 105 15 339 0
444 -55 381 -244 728 -534 985 -305 269 -727 414 -1137 391z m253 -303 c588
-85 1038 -532 1122 -1115 67 -459 -128 -933 -498 -1213 -187 -142 -377 -223
-599 -257 -398 -61 -788 64 -1084 348 -148 141 -242 280 -314 463 -144 368
-118 767 72 1113 166 301 494 555 817 633 151 36 349 47 484 28z" />
        <path fill="#81a1df" d="M1637 2456 c-140 -52 -172 -243 -58 -339 90 -75 231 -55 292 42 38
60 41 155 6 216 -42 73 -157 112 -240 81z" />
        <path fill="#81a1df" d="M1391 1852 c-74 -37 -99 -118 -62 -194 29 -62 67 -81 155 -79 39 0
83 -2 99 -5 l27 -6 -2 -201 -3 -202 -102 -5 c-114 -6 -144 -19 -175 -81 -34
-66 -13 -144 51 -186 33 -23 39 -23 323 -23 250 0 295 2 325 17 47 22 73 66
73 126 0 88 -45 135 -140 146 l-45 6 -5 295 c-6 339 -9 353 -84 390 -38 18
-61 20 -222 20 -151 0 -184 -3 -213 -18z" />
    </g>
</svg>