<?xml version="1.0" standalone="no"?>
<!DOCTYPE svg PUBLIC "-//W3C//DTD SVG 20010904//EN" "http://www.w3.org/TR/2001/REC-SVG-20010904/DTD/svg10.dtd">
<svg version="1.0" xmlns="http://www.w3.org/2000/svg" width="168.000000pt" height="168.000000pt"
    viewBox="0 0 168.000000 168.000000" preserveAspectRatio="xMidYMid meet">

    <g transform="translate(0.000000,168.000000) scale(0.100000,-0.100000)" fill="#ccc" stroke="none">
        <path fill="#9ba4de" d="M725 1643 c-125 -17 -292 -91 -392 -173 -123 -100 -219 -248 -265
-406 -19 -65 -23 -102 -22 -214 0 -156 14 -221 75 -347 98 -204 272 -352 494
-419 120 -36 308 -39 426 -6 287 78 510 309 575 597 23 102 23 264 0 360 -10
39 -41 117 -69 175 -44 91 -63 117 -142 196 -134 135 -269 206 -443 233 -69
11 -175 12 -237 4z m330 -127 c219 -75 386 -249 456 -476 35 -111 33 -283 -4
-395 -38 -115 -90 -199 -183 -292 -67 -67 -98 -89 -175 -127 -121 -58 -230
-81 -354 -73 -367 22 -656 329 -655 699 1 322 218 600 532 679 110 28 276 21
383 -15z" />
        <path fill="#aaa" d="M785 1200 c-42 -46 -10 -120 52 -120 42 0 73 30 73 70 0 62 -84 95
-125 50z" />
        <path fill="#aaa" d="M706 934 c-36 -35 -7 -84 50 -84 l34 0 0 -150 0 -150 -59 0 c-63 0
-91 -15 -91 -50 0 -45 21 -50 200 -50 l170 0 16 25 c15 23 15 27 0 50 -15 22
-24 25 -76 25 l-60 0 0 178 c0 221 0 222 -100 222 -49 0 -73 -4 -84 -16z" />
    </g>
</svg>